<svg version="1" xmlns="http://www.w3.org/2000/svg" width="682.667" height="682.667" viewBox="0 0 512.000000 512.000000"><path d="M355 42.9c-33.2 10.2-94.4 89.9-122.6 159.5l-3.2 8-8.8 1.7c-11.7 2.3-11.5 2.3-22 5.2-5 1.4-10.1 3-11.4 3.7-2.7 1.4-2.7 1.4-3.5-3.7-2.5-16.9-15.4-58-26.2-83.3-30.4-71.4-64-107.6-76.4-82.3-2.2 4.4-2.4 6.1-2.4 18.8 0 12.5 1 25.8 2 27.4.2.4.6 2.5.9 4.7.9 5.4 1.2 7.3 2.4 11.9.6 2.2 1.3 5.1 1.6 6.5 1.7 9.4 12.7 42.5 19.9 60 8.6 21.2 19.7 43.6 28.4 57.7l5.1 8.2-7.1 6.3c-3.9 3.5-8.9 8.3-11.2 10.7-2.2 2.4-4.6 5-5.4 5.8-2.1 2.2-10 13.1-12.7 17.6-7.4 12.4-14.5 31.2-16 42.2-.4 2.7-.8 5.9-1.1 7-.6 3.1-.5 24.6.2 29 6.3 40.7 32.5 76.2 73.5 99.7 5.2 3 13.1 6.9 17.5 8.7 4.4 1.8 8.7 3.7 9.5 4.1 4.1 2 22.5 7 31 8.5 1.9.3 4.2.8 5 1 11.6 3.1 44 3.7 63.7 1.1 83.6-11 146.5-72 144.7-140.4-.4-16.4-2.2-25.7-7.9-40.7-8.8-23.1-26.1-45.2-48.2-61.7-5-3.7-9.4-6.8-9.7-6.8-.3 0-3-1.6-6-3.5-11.6-7.4-36.6-17.6-50.7-20.6l-4.8-1 5.2-7.2c2.9-4 5.4-7.4 5.7-7.7.3-.3 3.2-4.6 6.5-9.5 11.9-18 21.9-35.4 30.8-53.7 5.1-10.3 9.4-18.7 9.7-18.8.3 0 2.7 4.5 5.4 10 20.5 42.4 46.8 62.4 55 41.9 2.6-6.5 2.1-24.3-.9-33.9-.3-1-.8-2.7-1-3.8-.2-1.1-1.5-5.6-2.9-10.1-8.9-28-27.1-59.6-41.3-71.5-8.7-7.3-13.3-8.8-20.3-6.7z"/></svg>